# xmcd
#
# Track frame offsets:
#	150
#	14132
#	29827
#	47622
#	64277
#	79012
#	93622
#	107714
#	123484
#	140932
#	153422
#	168172
#	182027
#	196484
#	210607
#	223914
#	237562
#	251286
#	265144
#	275909
#	290504
#	304604
#	321124
#	339754
#
# Disc length: 4703 seconds
#
# Revision: 0
# Processed by: cddbd v1.4PL0 Copyright (c) Steve Scherf et al.
# Submitted via: dBpowerAMP V4.0
#
DISCID=77125d18
DTITLE=Los tigres del norte - 22 corridos furiosos
DYEAR=1900
DGENRE=Country
TTITLE0=Banda del carro rojo
TTITLE1=Contrabando y traicion
TTITLE2=Los tres amigos
TTITLE3=El taur
TTITLE4=La fuga del rojo
TTITLE5=Margarita de tijuana
TTITLE6=Carrera contra la muerte
TTITLE7=Corrido del d.fonseca
TTITLE8=Dorado
TTITLE9=Hijo menor
TTITLE10=La maestra
TTITLE11=Hijo de camelia
TTITLE12=Tamal
TTITLE13=Vivan los mojados
TTITLE14=La muerte del soplon
TTITLE15=Juan Guerrero
TTITLE16=Contrabando y robo
TTITLE17=Camisa mojada
TTITLE18=Tumba de mi madre
TTITLE19=Ya encontraron a camelia
TTITLE20=El gringo y el mexicano
TTITLE21=Pakas de a kilo
TTITLE22=El avion de la muerte
TTITLE23=Caballo chamacuz
EXTD=22 corridos famosos 
EXTT0=
EXTT1=
EXTT2=
EXTT3=
EXTT4=
EXTT5=
EXTT6=
EXTT7=
EXTT8=
EXTT9=
EXTT10=
EXTT11=
EXTT12=
EXTT13=
EXTT14=
EXTT15=
EXTT16=
EXTT17=
EXTT18=
EXTT19=
EXTT20=
EXTT21=
EXTT22=
EXTT23=
PLAYORDER=
